<svg height="512" viewBox="0 0 58 49" width="512" xmlns="http://www.w3.org/2000/svg"><g id="Page-1" fill="none" fill-rule="evenodd"><g id="040---Flight-Bag" fill-rule="nonzero"><path id="Shape" d="m35 6.055v4.945h-5v-4.945c0-.55228475-.4477153-1-1-1h-12c-.5522847 0-1 .44771525-1 1v4.945h-5v-4.945c0-3.3137085 2.6862915-6 6-6h12c3.3137085 0 6 2.6862915 6 6z" fill="#285680"/><path id="Shape" d="m3 39h7v4.055c0 1.1045695-.8954305 2-2 2h-3c-1.1045695 0-2-.8954305-2-2z" fill="#805333"/><path id="Shape" d="m45 12.05v9.53l-4.1 2.37-6.91-2.95c-.6410818-.2897385-1.3364844-.4397274-2.04-.44-.8819411.0017441-1.7477876.2363161-2.51.68l-1.74 1.01c-1.4512754.8413192-2.3829593 2.3553056-2.48 4.03-.0166524.2498672-.0133084.5006656.01.75l-.55-.29c-1.5213956-.8216933-3.3593538-.7990025-4.86.06l-2.16 1.24c-2.3725921 1.4005503-3.1828055 4.4455281-1.82 6.84l3.56 6.17h-17.4c-1.10320187-.0032948-1.9967052-.8967981-2-2v-27c.0032948-1.1032019.89679813-1.9967052 2-2h41c1.1032019.0032948 1.9967052.8967981 2 2z" fill="#3b97d3"/><path id="Shape" d="m11 25.05v16h-2v-16c0-.5522847.44771525-1 1-1 .5522847 0 1 .4477153 1 1z" fill="#2980ba"/><path id="Shape" d="m11 10.05v5.42c0 .5522847-.4477153 1-1 1-.55228475 0-1-.4477153-1-1v-5.42z" fill="#2980ba"/><path id="Shape" d="m8 25.055h4c.5522847 0 1-.4477153 1-1v-5.586c-.0000566-.2651948-.1054506-.5195073-.293-.707l-2-2c-.3904999-.3903819-1.02350015-.3903819-1.414 0l-2 2c-.18754937.1874927-.29294336.4418052-.293.707v5.586c0 .5522847.44771525 1 1 1z" fill="#f9eab0"/><path id="Shape" d="m41.16 28.41-5.07 2.93-.75.43-5.74-4.39c-.2663362-.2048674-.412941-.52908-.3908562-.8643678s.2099492-.6374694.5008562-.8056322l1.74-1.01c.2744761-.160519.6094324-.1791277.9-.05z" fill="#285680"/><path id="Shape" d="m55.73 30.47-8.75 5.05-2.24 1.29-.97 5.93-.21 1.31c-.0489623.2980251-.2287264.5584996-.49.71l-1.72.99c-.2954961.1770036-.6612877.1894681-.9681472.0329901-.3068596-.1564781-.5115859-.459869-.5418528-.8029901l-.49-5.05-1.91 1.1-4.84 2.79c-.5862598.3377293-1.2251855.5743685-1.89.7-.6871015.128273-1.3916969.1316604-2.08.01l-.69 2.44c-.0841173.202031-.2362279.3682915-.43.47l-1.97 1.42c-.3090648.1832455-.6926808.1865957-1.004899.0087761-.3122181-.1778196-.5050383-.5094712-.505101-.8687761l-.03-6.95v-.05l-4.7-8.12c-.272093-.484125-.1077901-1.0969306.37-1.38l2.14-1.23c.2992217-.173153.6672721-.1769473.97-.01l7.91 4.19 4.65-2.68.75-.43 5.07-2.93 3.84-2.22 6.03-3.48c2.043613-1.2297722 4.6861114-.7159531 6.12 1.19.7452556 1.0409361 1.0160498 2.3482809.7455965 3.5996038-.2704534 1.2513229-1.0569792 2.330145-2.1655965 2.9703962z" fill="#4482c3"/><g fill="#285680"><path id="Shape" d="m39.352 39.931-1.91 1.1-.63-6.51c-.0460036-.4107035.1697887-.8063228.54-.99.1130375-.0573395.2351947-.0945619.361-.11.5490683-.051609 1.0362713.3510381 1.089.9z"/><path id="Shape" d="m45.812 30.231c.0417111-.263118.1866864-.4987163.4027681-.6545355.2160817-.1558191.4854058-.2189771.7482319-.1754645.5438253.0929268.9127354.6046838.829 1.15l-.81 4.97-2.24 1.29z"/><path id="Shape" d="m32.453 38.351-1.74 6.17c-.6874388.1282632-1.3923603.1316506-2.081.01l1.9-6.72c.074479-.3675347.3483281-.6625075.7093265-.7640411s.7484605.0074401 1.0036082.2822648c.2551476.2748247.3350891.669301.2070653 1.0217763z"/></g></g></g></svg>